<?xml version="1.0" encoding="UTF-8"?> <svg xmlns="http://www.w3.org/2000/svg" xmlns:xlink="http://www.w3.org/1999/xlink" width="200px" height="30px" viewBox="0 0 200 30"><!-- Generator: Sketch 52.6 (67491) - http://www.bohemiancoding.com/sketch --><title>Group 29</title><desc>Created with Sketch.</desc><g id="Page-1" stroke="none" stroke-width="1" fill="none" fill-rule="evenodd"><g id="Home-page" transform="translate(-135.000000, -23.000000)" fill="#008649"><g id="Group-20" transform="translate(0.000000, 17.000000)"><g id="Group-28"><g id="Group-29" transform="translate(135.000000, 6.000000)"><rect id="Rectangle" x="44" y="0" width="9" height="30"></rect><path d="M88.4572406,7.75330396 L74.8084379,7.75330396 C73.5952109,7.75330396 72.4253136,7.92951542 71.3420753,8.28193833 C70.2588369,8.63436123 69.3489168,9.16299559 68.5689852,9.82378855 C67.7890536,10.4845815 67.1391106,11.277533 66.7058153,12.1585903 C66.27252,13.0396476 66.0125428,14.0528634 66.0125428,15.0660793 C66.0125428,16.1674009 66.1858609,17.1365639 66.6624857,17.9735683 C67.0957811,18.8546256 67.7023945,19.6035242 68.4389966,20.2643172 C69.2189282,20.9251101 70.1288483,21.3656388 71.2120867,21.7621145 C72.295325,22.1145374 73.4652223,22.246696 74.7217788,22.246696 L85.8574686,22.246696 L85.8574686,18.5462555 L73.1185861,18.5462555 C73.1185861,16.3436123 73.1185861,14.0969163 73.1185861,11.8942731 L95,11.8942731 L95,30 L74.7651083,30 C72.2086659,30 69.8688712,29.6035242 67.659065,28.8105727 C65.4925884,28.0176211 63.6294185,27.0044053 62.0262258,25.5947137 C60.4663626,24.2290749 59.2098062,22.6431718 58.3432155,20.7488987 C57.4766249,18.8546256 57,16.8281938 57,14.6696035 C57,12.5110132 57.4332953,10.5286344 58.3432155,8.6784141 C59.2531357,6.91629956 60.4663626,5.33039648 62.0262258,4.05286344 C63.5860889,2.7753304 65.4925884,1.71806167 67.659065,1.05726872 C69.8255416,0.352422907 72.1653364,0 74.7651083,0 L95,0 L95,7.75330396 L88.4572406,7.75330396 Z" id="Path"></path><rect id="Rectangle" x="100" y="0" width="9" height="30"></rect><path d="M153,14.6696035 C153,16.8281938 152.560694,18.8546256 151.63815,20.7488987 C150.759538,22.6431718 149.485549,24.2290749 147.904046,25.5947137 C146.322543,26.9162996 144.389595,28.0176211 142.193064,28.8105727 C139.996532,29.6035242 137.624277,30 134.988439,30 L115,30 L115,11.3215859 L124.313295,11.3215859 L124.313295,22.2907489 L135.076301,22.2907489 C136.350289,22.2907489 137.536416,22.1585903 138.634682,21.8061674 C139.732948,21.4537445 140.655491,20.969163 141.446243,20.30837 C142.236994,19.6475771 142.808092,18.9427313 143.247399,18.0176211 C143.686705,17.1365639 143.950289,16.123348 143.950289,15.1101322 C143.950289,14.0528634 143.686705,13.0837004 143.247399,12.2026432 C142.808092,11.3215859 142.149133,10.5286344 141.358382,9.86784141 C140.56763,9.20704846 139.645087,8.72246696 138.546821,8.32599119 C137.448555,7.92951542 136.350289,7.79735683 135.03237,7.79735683 L115.043931,7.79735683 L115.043931,0 L135.03237,0 C137.624277,0 140.040462,0.352422907 142.280925,1.10132159 C144.477457,1.85022026 146.366474,2.81938326 147.991908,4.0969163 C149.57341,5.37444934 150.847399,6.96035242 151.726012,8.72246696 C152.560694,10.5726872 153,12.5550661 153,14.6696035 Z" id="Path"></path><rect id="Rectangle" x="17" y="11" width="13" height="8"></rect><polygon id="Path" points="9.70581528 7.72058824 9.70581528 22.2352941 38 22.2352941 38 30 0 30 0 0 38 0 38 7.72058824"></polygon><path d="M165.774309,30 L171.281891,22.4229075 L178.669045,22.4229075 C179.543265,22.4229075 180.461195,22.4229075 181.422837,22.4229075 C182.384478,22.4229075 183.214987,22.4669604 183.914362,22.5110132 C183.520963,21.9823789 183.040143,21.3215859 182.4719,20.4845815 C181.947368,19.69163 181.422837,18.8986784 180.898305,18.1938326 L175.609277,10.3964758 L161.79661,29.9559471 L151,29.9559471 L169.88314,3.30396476 C170.495094,2.46696035 171.281891,1.67400881 172.199822,1.01321586 C173.117752,0.352422907 174.341659,0 175.784121,0 C177.182872,0 178.319358,0.308370044 179.237288,0.969162996 C180.155219,1.58590308 180.942016,2.37885463 181.597681,3.34801762 L200,30 L165.774309,30 Z" id="Path"></path></g></g></g></g></g></svg> 